<svg data-v-423bf9ae="" xmlns="http://www.w3.org/2000/svg" viewBox="0 0 163.56773297006646 163" class="iconAbove"><!----><!----><!----><g data-v-423bf9ae="" id="00b16db5-5f55-4204-b524-d30cf4450740" fill="white" transform="matrix(4.441154624981523,0,0,4.441154624981523,-2.931161592856796,102.11176734813449)"><path d="M5.43 8.05C5.43 9.27 4.77 10.08 3.22 10.08C2.20 10.08 1.40 9.73 0.66 9.35L0.66 10.32C1.32 10.63 2.34 10.84 3.21 10.84C5.29 10.84 6.52 9.67 6.52 8.06C6.52 6.72 5.98 5.94 4.27 5.17L3.35 4.76C2.18 4.26 1.83 3.67 1.83 3.07C1.83 1.86 2.56 1.30 3.86 1.30C4.77 1.30 5.39 1.58 6.08 1.92L6.08 0.98C5.45 0.70 4.68 0.55 3.84 0.55C2.00 0.55 0.81 1.55 0.81 3.16C0.81 4.47 1.46 5.21 2.90 5.84L3.85 6.24C4.94 6.72 5.43 7.28 5.43 8.05ZM12.96 10.64L14 10.64L14 6.48C14 5.64 14 5.25 13.92 4.87C13.69 3.81 12.99 3.40 11.97 3.40C11.30 3.40 10.28 3.61 9.56 4.41L9.56 0.20L8.50 0.20L8.50 10.64L9.55 10.64L9.55 6.24C9.55 5.46 9.58 5.17 9.86 4.82C10.26 4.33 10.99 4.13 11.56 4.13C12.28 4.13 12.66 4.42 12.82 4.98C12.92 5.33 12.96 5.85 12.96 6.71ZM20.37 10.64L21.39 10.64C21.22 10.11 21.21 9.56 21.21 9.09L21.21 5.80C21.21 4.79 21.01 4.33 20.65 3.95C20.22 3.51 19.52 3.40 18.82 3.40C18.13 3.40 17.22 3.56 16.48 3.91L16.48 4.72C17.35 4.24 18.10 4.14 18.69 4.14C19.21 4.14 19.61 4.28 19.85 4.59C20.09 4.90 20.17 5.39 20.17 5.91L20.17 6.54C19.92 6.52 19.56 6.51 19.29 6.51C16.84 6.51 15.81 7.28 15.81 8.65C15.81 9.90 16.63 10.81 18.06 10.81C19.18 10.81 19.84 10.32 20.20 9.66C20.22 9.93 20.30 10.40 20.37 10.64ZM20.17 7.11L20.17 8.11C20.17 8.57 20.10 9.03 19.84 9.34C19.47 9.79 18.93 10.09 18.27 10.09C17.37 10.09 16.87 9.52 16.87 8.62C16.87 7.78 17.47 7.10 19.49 7.10C19.71 7.10 19.98 7.10 20.17 7.11ZM24.61 10.64L24.61 6.40C24.61 5.78 24.72 5.26 24.99 4.90C25.30 4.48 25.72 4.34 26.18 4.34C26.46 4.34 26.81 4.38 27.09 4.51L27.09 3.54C26.85 3.47 26.61 3.44 26.33 3.44C25.69 3.44 24.92 3.86 24.57 4.62C24.57 4.41 24.53 3.92 24.46 3.58L23.42 3.58C23.52 4.23 23.56 5.04 23.56 5.73L23.56 10.64ZM29.62 4.41C29.60 4.19 29.54 3.79 29.50 3.58L28.48 3.58C28.55 4.03 28.60 4.69 28.60 5.22L28.60 13.71L29.65 13.71L29.65 10.16C30.14 10.60 30.74 10.79 31.57 10.79C32.82 10.79 34.43 10.08 34.43 7.01C34.43 4.63 33.45 3.43 31.77 3.43C30.86 3.43 30.18 3.77 29.62 4.41ZM29.64 7.18C29.64 5.29 29.74 4.93 30.24 4.52C30.49 4.33 30.98 4.06 31.56 4.06C32.69 4.06 33.33 4.98 33.33 7.03C33.33 9.25 32.58 10.16 31.46 10.16C30.87 10.16 30.37 10.05 30.00 9.65C29.68 9.30 29.64 8.74 29.64 7.18ZM37.38 10.64L37.38 3.58L36.32 3.58L36.32 10.64ZM37.49 1.40C37.49 0.87 37.30 0.70 36.86 0.70C36.41 0.70 36.19 0.88 36.19 1.40C36.19 1.95 36.40 2.10 36.83 2.10C37.28 2.10 37.49 1.92 37.49 1.40Z"></path></g><!----><g data-v-423bf9ae="" id="a29a4d88-6977-4d52-a925-b3f140fc7883" transform="matrix(1.0003712654452954,0,0,1.0003712654452954,29.753225075366778,-4.001504594911907)" stroke="none" fill="white"><path d="M86.2 35c.3-3.5.4-6.3-.1-8.8C84.4 16.8 75.8 10 65.3 7.1c-8.6-2.4-24.4-5.9-34.5 1-5.4 3.7-8.8 10.9-9.6 21.5-.3 4.2 1.5 12.6 2.9 17.4 1.4 4.8 2.5 7 3.3 9 .9 2.1 3.5 12.2 2.8 18.1-1.1 9-8.1 14.4-11.6 17.1-1.1.9-.6 2.6.7 2.8h36.5c1.4.2 2.4-1.2 1.6-2.4-1.8-2.9-2.3-5.9-.9-9.3.7-1.6 1.4-2.3 3.3-1.5 2.5 1.1 5.2 2.2 7.9 2.8 1.9.4 2.3.5 4.4-.8 1.7-1 2.9-2.6 2.7-5.1-.2-2.3-.3-2.8.2-3.9.3-.7 1.2-1.4 1.6-2.5.1-.2-2-.7-2-.9.1-.2 2.2-.2 2.3-.4.3-1 .1-2 .4-3.1.5-1.9 1.5-4.2 3.3-4.3.7 0 1.3-.4 2-.6 1.2-.5 1.7-1.4 1.4-3-.9-4.1-2.1-6.4-2.9-10.5-.2-.8-.3-2.1.1-2.7 2.6-3.3 4.2-1.5 5-10.8zm-13.7 2l-3.2 3.2s-.1 0-.2.1c-1.7-4.2-5.2-5.5-8.4-5-3.5.5-6.5 3.6-7 7.4-.4 3.2 1.5 6.2 5.2 7.9-1.2 1.3-2.3 2.5-3.6 3.6-1.4 1.2-3.6 1-5-.3l-4.5-4.5c-.3-.3-.7-.6-1.1-.9-1.5-.9-3.1-.2-3.5 1.5 0 .2 0 .4-.1.6-.2 1.8-1 3.2-2.9 3.7-1.8.5-3.4-.1-4.6-1.5-1.1-1.2-1.6-2.7-1-4.4.6-1.6 1.9-2.4 3.6-2.6.4 0 .8-.1 1.2-.3 1.4-.5 1.9-1.9 1.1-3.2-.2-.4-.6-.8-.9-1.1-1.4-1.5-2.9-2.9-4.4-4.4-1.7-1.7-1.7-3.8 0-5.6l4.4-4.4c.3-.3.6-.6.8-.9 1-1.6.2-3.3-1.6-3.6-.4-.1-.8-.1-1.2-.2-2.8-.7-4.1-3.4-2.6-6 .7-1.3 1.8-2.2 3.3-2.5 2.3-.5 4.5 1.1 4.8 3.5.1 1.2.3 2.4 1.7 2.8 1.3.4 2.2-.4 3.1-1.2l4.3-4.3c1.7-1.7 3.8-1.7 5.5 0l4.2 4.2c.2.2.4.4.7.6.8.7 1.6 1.1 2.6.7 1.1-.4 1.4-1.3 1.5-2.3.2-1.9 1.2-3.3 2.8-3.8 2.4-.7 5.1 1 5.7 3.6.5 2.4-1 4.5-3.7 4.9-.2 0-.4 0-.6.1-1.9.3-2.7 2-1.6 3.6.2.3.5.6.8.9 1.5 1.5 2.9 3 4.4 4.5 1.7 1.8 1.7 3.9 0 5.6z"></path></g><!----></svg>